<svg width="500" height="500" stroke="black" stroke-width="1" xmlns="http://www.w3.org/2000/svg">
    
	<circle cx="200" cy="200" r="190" fill="#0A0A0A " stroke="#A8DADC" stroke-width="8" />
	
	<path d="M 90 120 Q 130 100, 170 120" stroke="white" stroke-width="5" fill="none" />
	
	 <path d="M 230 120 Q 260 100, 310 120" stroke="white" stroke-width="3" fill="none" />
    
    <!-- Initials K -->
    <text x="130" y="190" font-family="Arial" font-size="80" text-anchor="middle" fill="#F1FAEE" font-weight="bold">
        K
    </text>
	
	<!-- Initials M -->
    <text x="270" y="190" font-family="Arial" font-size="80" text-anchor="middle" fill="#F1FAEE" font-weight="bold">
        M
    </text>
    
    <!-- Circular design element -->
    <circle cx="200" cy="200" r="197" fill="none" stroke="black" stroke-width="4" stroke-dasharray="15 10" />
    
    <!-- Subtext "Karabo Ken Motlhabi" -->
    <text x="200" y="230" font-family="Arial"  font-size="24" text-anchor="middle" fill="#A8DADC">
        k3n
    </text>
	
	<!-- Path for the curved text -->
	<path id="curvePath" d="M80 290 Q 200 400, 320 290" style="stroke: none; fill: crimson;"/> 
	
	
	
	 <!-- Slogan "Your Website Builder" curved along the bottom -->
    <text font-family="Arial" font-size="22" fill="#A8DADC">
        <textPath href="#curvePath" fill="white" startOffset="50%" text-anchor="middle">
            Your web design friend 
        </textPath>
    </text>
	
	<path style="stroke: black; fill: none" d="M 200 290 Q 210 310, 200 360" />
	
	<text x="200" y="305" fill="white" text-anchor="middle" font-size="36">
		▪▪▪▪▪▪▪▪▪▪▪▪▪▪▪
	</text>
	
	<path style="stroke: black; fill: black" d="M 500 370 L 200 410 L 180 500 L 470 460Z " />
	
	<path style="stroke: black; fill: none" d="M 180 500 L 100 430 L 200 420" />
	
	<path id="label" d="M250 450 L 420 430" />
	
	<text font-size="24" fill="white" text-anchor="middle">
		<textPath href="#label" startOffset="50%" text-anchor="middle">
			Ǩɪǩɩǹȟȱ
		</textPath>
	</text>
	
	
	<path id="name" d="M 420 350 L 500 100"  stroke="none"/>
	
	<text fill="red" text-anchor="middle" font-size="60">
		<textPath href="#name" startOffset="50%" text-anchor="middle">
			Ken Apps
		</textPath>
	</text>
		
</svg>
